<svg preserveAspectRatio="none" width="100%" height="100%" overflow="visible" style="display: block;" viewBox="0 0 24 21" fill="none" xmlns="http://www.w3.org/2000/svg">
<path id="Subtract" d="M20.9609 5.18164H19.8369L18.5557 12.4326L17.2598 5.18164H15.1016V15.8115H16.4414V7.44336L17.8535 15.8115H19.2422L20.6602 7.44336V15.8115H20.9648L18 21H6L0 10.5L6 0H18L20.9609 5.18164ZM4.86523 5C4.31634 5 3.84679 5.1236 3.45703 5.37012C3.07055 5.61663 2.7733 5.97652 2.56543 6.4502C2.3608 6.9191 2.25781 7.4244 2.25781 7.96582C2.25783 8.80683 2.47763 9.51962 2.91602 10.1045C3.2278 10.5202 3.77005 10.8711 4.54297 11.1562C5.14386 11.3786 5.52934 11.5331 5.69824 11.6201C5.94496 11.7506 6.11741 11.9052 6.21484 12.084C6.31553 12.258 6.36523 12.4713 6.36523 12.7227C6.3652 13.1141 6.24677 13.4571 6.00977 13.752C5.7759 14.042 5.42639 14.1875 4.96191 14.1875C4.5237 14.1874 4.1748 14.0228 3.91504 13.6943C3.65844 13.3656 3.48777 12.8504 3.40332 12.1494L2 12.3525C2.09419 13.5417 2.38322 14.4487 2.86719 15.0723C3.35108 15.6908 4.04459 15.9999 4.94727 16C5.56765 16 6.0862 15.8714 6.50195 15.6152C6.91753 15.3542 7.23949 14.9583 7.4668 14.4268C7.69416 13.895 7.80762 13.3239 7.80762 12.7148C7.80758 12.0431 7.71211 11.4797 7.52051 11.0254C7.33212 10.5662 7.06824 10.2063 6.73047 9.94531C6.39594 9.67951 5.87812 9.42323 5.17676 9.17676C4.47517 8.93022 4.03345 8.69302 3.85156 8.46582C3.70868 8.28697 3.63672 8.07166 3.63672 7.82031C3.63679 7.54498 3.71366 7.32541 3.86621 7.16113C4.10332 6.90493 4.43158 6.77637 4.85059 6.77637C5.25638 6.77645 5.5604 6.89706 5.76172 7.13867C5.96632 7.37551 6.09941 7.76736 6.16113 8.31348L7.60254 8.21973C7.5798 7.24324 7.34145 6.46188 6.88672 5.87695C6.43531 5.29231 5.76134 5.00009 4.86523 5ZM8.50879 5.18164V6.97949H10.6289V15.8115H12.0703V6.97949H14.1855V5.18164H8.50879ZM24 10.5L22 14V7L24 10.5Z" fill="var(--fill-0, black)"/>
</svg>
